<svg width="39" height="28" viewBox="0 0 39 28" fill="none" xmlns="http://www.w3.org/2000/svg">
<path d="M29.5833 8.42857V4.71429C29.5833 2.66294 27.7552 1 25.5 1H5.08333C2.82817 1 1 2.66294 1 4.71429V15.8571C1 17.9085 2.82817 19.5714 5.08333 19.5714H9.16667M13.25 27H33.6667C35.9218 27 37.75 25.3371 37.75 23.2857V12.1429C37.75 10.0915 35.9218 8.42857 33.6667 8.42857H13.25C10.9948 8.42857 9.16667 10.0915 9.16667 12.1429V23.2857C9.16667 25.3371 10.9948 27 13.25 27ZM27.5417 17.7143C27.5417 19.7656 25.7135 21.4286 23.4583 21.4286C21.2032 21.4286 19.375 19.7656 19.375 17.7143C19.375 15.6629 21.2032 14 23.4583 14C25.7135 14 27.5417 15.6629 27.5417 17.7143Z" stroke="#189D90" stroke-width="2" stroke-linecap="round" stroke-linejoin="round"/>
</svg>
