<svg width="1440" height="1360" viewBox="0 0 1440 1360" fill="none" xmlns="http://www.w3.org/2000/svg">
    <rect x="-2" width="1441" height="1360" fill="#79B3AF"/>
    <path opacity="0.53" d="M-37.9998 544.845C228.677 529.659 239.943 346.869 212.241 257.372C72.8439 301.879 33.0435 376.107 26.8362 410.215C16.895 493.87 -16.6161 532.23 -37.9998 544.845Z" fill="#24998A"/>
    <path opacity="0.53" d="M1535.84 939.309C1223.18 922.778 1210.69 711.252 1243.53 607.555C1406.82 658.522 1453.2 744.282 1460.34 783.735C1471.67 880.522 1510.82 924.791 1535.84 939.309Z" fill="#1D7D71"/>
    <path opacity="0.53" d="M618.676 267C590.992 403.349 693.519 430.095 748.243 426.425C741.896 350.939 705.059 322.299 686.488 315.236C640.218 300.58 622.944 279.246 618.676 267Z" fill="#349778"/>
    <path opacity="0.53" d="M957 406.845C1223.68 391.66 1234.94 208.869 1207.24 119.372C1067.84 163.879 1028.04 238.107 1021.84 272.215C1011.9 355.87 978.384 394.23 957 406.845Z" fill="#28998B"/>
    <path opacity="0.53" d="M723 1026.37C910.77 1013.77 919.769 880.914 900.797 816.059C802.432 849.208 773.987 903.366 769.418 928.18C761.932 989.012 738.123 1017.08 723 1026.37Z" fill="#2A7C74"/>
</svg>
